<svg xmlns="http://www.w3.org/2000/svg" width="96" height="96" viewBox="0 0 96 96" role="img" aria-label="Southbag">
  <rect width="96" height="96" fill="#fff"/>
  <rect x="8" y="8" width="80" height="80" fill="#ddd" stroke="#000" stroke-width="4"/>
  <path d="M24 61c4 8 13 12 25 12 14 0 23-7 23-18 0-10-7-15-21-18-8-2-12-3-12-7 0-3 3-5 9-5 5 0 10 2 15 5l7-12c-6-5-13-7-22-7-13 0-22 7-22 18 0 10 7 15 21 18 8 2 12 4 12 8 0 3-4 5-10 5-7 0-13-3-18-8z" fill="#fff" stroke="#000" stroke-width="2"/>
</svg>
